<?xml version="1.0" encoding="UTF-8" standalone="no"?>
<!-- Created with Inkscape (http://www.inkscape.org/) -->

<svg
   width="47"
   height="47"
   viewBox="0 0 12.435417 12.435417"
   version="1.1"
   id="svg1"
   xml:space="preserve"
   sodipodi:docname="dibujo3.svg"
   inkscape:version="1.3.2 (091e20e, 2023-11-25, custom)"
   xmlns:inkscape="http://www.inkscape.org/namespaces/inkscape"
   xmlns:sodipodi="http://sodipodi.sourceforge.net/DTD/sodipodi-0.dtd"
   xmlns="http://www.w3.org/2000/svg"
   xmlns:svg="http://www.w3.org/2000/svg"><sodipodi:namedview
     id="namedview1"
     pagecolor="#505050"
     bordercolor="#eeeeee"
     borderopacity="1"
     inkscape:showpageshadow="0"
     inkscape:pageopacity="0"
     inkscape:pagecheckerboard="0"
     inkscape:deskcolor="#505050"
     inkscape:document-units="px"
     inkscape:zoom="3.7762514"
     inkscape:cx="21.714656"
     inkscape:cy="27.14332"
     inkscape:window-width="1366"
     inkscape:window-height="705"
     inkscape:window-x="-8"
     inkscape:window-y="-8"
     inkscape:window-maximized="1"
     inkscape:current-layer="svg1"
     showguides="true"
     inkscape:lockguides="true" /><defs
     id="defs1"><linearGradient
       id="swatch2"
       inkscape:swatch="solid"><stop
         style="stop-color:#000000;stop-opacity:1;"
         offset="0"
         id="stop2" /></linearGradient></defs><g
     id="g2"
     inkscape:label="container"><g
       id="g1"
       transform="matrix(0.12014715,0,0,0.12014715,-4.4316746,-9.6569403)"
       inkscape:label="jsimon"><rect
         style="fill:#000000;fill-opacity:1;stroke:none;stroke-width:2.422"
         id="rect1"
         width="97.291473"
         height="97.291473"
         x="54.164909"
         y="105.24935"
         inkscape:label="background"
         transform="matrix(1.0638296,0,0,1.0638296,-21.070103,-31.809702)" /><path
         d="m 72.71762,160.70417 c 0.731205,-0.0457 1.274941,-0.12984 1.935214,-0.29974 2.600106,-0.66908 4.585235,-2.41794 5.961617,-5.25208 1.077476,-2.21865 1.718358,-4.93814 1.97226,-8.369 0.05692,-0.76912 0.20002,-4.27114 0.542534,-13.27713 0.05052,-1.32824 0.09608,-2.41846 0.101251,-2.42271 0.0411,-0.0337 0.994511,-0.58925 1.440637,-0.83933 2.097306,-1.17571 4.148894,-2.10368 6.142663,-2.77845 0.277563,-0.094 0.55642,-0.19721 0.619687,-0.22949 0.259963,-0.13262 0.43766,-0.39822 0.491279,-0.73428 0.03342,-0.20934 0.01801,-0.28999 -0.07434,-0.38925 -0.129805,-0.13953 -0.324654,-0.19029 -0.785206,-0.20454 -0.479037,-0.0148 -0.739656,0.02 -1.38143,0.18468 -1.015281,0.26051 -2.692857,0.8823 -4.214356,1.56205 -0.450703,0.20137 -1.617601,0.78098 -1.957634,0.97238 -0.119633,0.0673 -0.221283,0.11273 -0.22589,0.10086 -0.0046,-0.0119 0.01716,-0.53334 0.04837,-1.15881 0.126751,-2.54036 0.804269,-15.3522 0.831666,-15.72678 l 0.01709,-0.23358 0.262553,-0.0754 c 0.696493,-0.20001 1.578601,-0.58892 2.070645,-0.91292 1.102191,-0.72575 1.672387,-1.62087 1.764796,-2.77043 0.129656,-1.61297 -0.77364,-2.77187 -2.342043,-3.00476 -0.916734,-0.13612 -1.69716,0.0668 -2.631097,0.68398 -0.823735,0.5444 -1.530509,1.23472 -2.01212,1.96527 -0.45848,0.69546 -0.833579,1.71567 -0.991616,2.69701 -0.01,0.0619 -0.03407,0.10559 -0.06281,0.11387 -0.02565,0.007 -0.291341,0.0706 -0.590424,0.14053 -1.422179,0.33238 -3.032848,0.85402 -4.290443,1.38954 -1.901846,0.80985 -3.509774,1.83569 -4.614562,2.94404 -0.92712,0.93011 -1.522823,1.88088 -1.883523,3.00619 -0.343167,1.07061 -0.440207,2.37241 -0.232673,3.12133 0.07904,0.28524 0.201806,0.49801 0.407225,0.70579 0.313666,0.31727 0.657804,0.43882 1.247241,0.44054 0.41906,0.001 0.638743,-0.0502 0.948037,-0.22179 0.32928,-0.1827 0.703465,-0.59238 0.901562,-0.98707 0.251768,-0.50162 0.342712,-0.95704 0.393643,-1.97123 0.05594,-1.11394 0.159804,-1.62351 0.473836,-2.32469 0.903701,-2.01781 3.122302,-3.37977 6.622293,-4.06529 0.254125,-0.0498 0.466731,-0.0858 0.472458,-0.0801 0.01075,0.0107 -1.209091,18.48765 -1.236921,18.73562 l -0.01561,0.13908 -0.241602,0.15533 c -1.187443,0.76341 -3.387544,2.33718 -4.633537,3.31444 -2.241022,1.75767 -4.230738,3.6121 -5.679461,5.29329 -2.724668,3.16189 -4.148364,6.34794 -4.396554,9.83891 -0.04113,0.5785 -0.01816,1.85003 0.04229,2.34116 0.208294,1.69226 0.744462,3.22467 1.632089,4.66462 0.928506,1.50627 1.95336,2.50116 3.205059,3.11134 0.489489,0.23862 0.825288,0.36198 1.335681,0.49066 0.834281,0.21035 1.638098,0.27697 2.610179,0.21633 z m -0.516598,-2.20038 c -0.611014,-0.1277 -1.124853,-0.39793 -1.591568,-0.83698 -0.39215,-0.3689 -0.681252,-0.76461 -1.002177,-1.37173 -0.745309,-1.40995 -1.182366,-3.2328 -1.338582,-5.58286 -0.04881,-0.73427 -0.04179,-2.37055 0.01265,-2.94546 0.248612,-2.626 1.059824,-4.77968 2.546677,-6.76115 0.428333,-0.57083 0.75037,-0.92761 1.65822,-1.83717 1.418394,-1.42106 2.286132,-2.16218 4.201031,-3.58803 0.570041,-0.42446 1.863737,-1.36185 1.958135,-1.41883 0.0173,-0.0105 0.02471,0.0207 0.01974,0.083 -0.0044,0.0548 -0.08713,1.42108 -0.183907,3.03613 -0.344237,5.74492 -0.503927,8.1502 -0.761773,11.47391 -0.13823,1.78183 -0.206391,2.40155 -0.38128,3.46664 -0.60684,3.69572 -1.835788,5.79386 -3.665253,6.25755 -0.326756,0.0828 -1.130038,0.0965 -1.471902,0.025 z m 12.101281,-49.05685 c 0.0047,-0.0344 0.0226,-0.1788 0.03971,-0.32087 0.07533,-0.62538 0.245949,-1.23105 0.449838,-1.59684 0.05643,-0.10123 0.179123,-0.26082 0.272661,-0.35464 0.218316,-0.21898 0.401682,-0.3055 0.689247,-0.3252 0.286756,-0.0196 0.429938,0.0449 0.544542,0.24558 0.166455,0.29145 0.183798,0.82217 0.03711,1.13563 -0.16136,0.34482 -0.529029,0.65787 -1.083501,0.92256 -0.282022,0.13463 -0.725793,0.30643 -0.873352,0.33812 -0.07715,0.0166 -0.08408,0.0126 -0.07626,-0.0443 z m 17.480747,32.71127 c 1.95501,-0.14026 3.91951,-0.70524 5.71791,-1.64445 0.93021,-0.48579 1.96349,-1.15729 2.70373,-1.75706 0.39994,-0.32404 1.25244,-1.17862 1.55383,-1.5576 1.24184,-1.56158 1.91296,-3.34474 2.08195,-5.53168 0.16176,-2.09343 -0.30529,-3.79937 -1.46582,-5.35414 -0.84182,-1.12777 -1.97813,-2.19017 -3.21186,-3.00293 -0.82859,-0.54586 -2.93188,-1.69777 -5.01426,-2.74615 -1.75318,-0.88266 -2.83087,-1.58016 -3.95354,-2.55883 -0.886827,-0.77308 -1.407423,-1.66293 -1.568749,-2.68149 -0.06537,-0.41277 -0.0407,-1.13217 0.05221,-1.52124 0.224151,-0.93898 0.74578,-1.79227 1.613069,-2.6387 0.57048,-0.55676 0.97791,-0.85071 1.62164,-1.16998 0.92124,-0.45691 1.92368,-0.64349 3.07321,-0.57201 1.82931,0.11376 2.9361,0.68131 3.49664,1.79304 0.18111,0.3592 0.35572,1.02379 0.35572,1.35393 0,0.0639 -0.0629,0.43798 -0.13983,0.83129 -0.0769,0.39331 -0.1384,0.76579 -0.13666,0.82773 0.005,0.19374 0.10075,0.39834 0.25105,0.53893 0.16499,0.15434 0.29382,0.21372 0.5958,0.27462 0.28987,0.0584 0.75828,0.0408 1.07459,-0.0404 0.29048,-0.0746 0.6669,-0.26453 0.88366,-0.44576 1.11233,-0.93003 1.4583,-2.95862 0.76173,-4.46636 -0.44188,-0.95642 -1.29895,-1.6878 -2.6514,-2.26253 -1.21149,-0.51484 -2.42757,-0.80083 -3.8469,-0.90472 -0.55773,-0.0408 -1.8414,-0.0181 -2.39306,0.0423 -2.307,0.25281 -4.229846,0.93996 -6.090409,2.1765 -1.926178,1.28014 -3.095425,2.91553 -3.488796,4.87966 -0.123128,0.61483 -0.141002,0.8185 -0.140728,1.60418 2.27e-4,0.65946 0.0074,0.78498 0.06073,1.06353 0.281698,1.47068 0.942326,2.56581 2.325459,3.85494 0.87621,0.81666 1.779273,1.47939 2.847484,2.08968 0.300137,0.17147 1.55829,0.85752 3.73854,2.03855 0.7178,0.38883 1.41168,0.7685 1.54194,0.84372 1.23474,0.71293 2.25082,1.49644 3.20366,2.47035 0.65195,0.66635 0.98955,1.12346 1.30505,1.767 0.40272,0.82145 0.56529,1.61885 0.53431,2.62088 -0.0601,1.94318 -0.74806,3.56837 -2.10834,4.98033 -1.88057,1.95199 -4.17388,2.74382 -7.107074,2.45392 -1.626197,-0.16073 -2.903587,-0.65928 -3.910858,-1.52638 -1.228023,-1.05712 -1.902707,-2.34675 -1.900516,-3.63273 5.98e-4,-0.34862 0.05351,-0.60271 0.178263,-0.85627 0.27017,-0.549 0.907795,-0.8464 1.818972,-0.84837 0.533949,-0.001 0.876412,-0.16598 1.01584,-0.48893 0.118389,-0.27421 0.0941,-0.51584 -0.09247,-0.9201 -0.229808,-0.49793 -0.630721,-0.88696 -1.194552,-1.15916 -0.450878,-0.21767 -0.80687,-0.29306 -1.386657,-0.29369 -1.386838,-10e-4 -2.538733,0.4119 -3.37475,1.21114 -0.90379,0.86402 -1.482439,2.04376 -1.616744,3.29617 -0.03881,0.36195 -0.01723,1.10263 0.04395,1.50901 0.247805,1.64593 1.055715,2.93417 2.446137,3.90045 1.206007,0.83813 3.006066,1.52471 4.921276,1.87707 1.554946,0.2861 3.437793,0.3931 4.975653,0.28276 z"
         style="display:inline;fill:#ffffff;fill-opacity:1;stroke-width:0.650167"
         id="path1"
         inkscape:label="js path" /></g></g></svg>
